<?xml version="1.0" encoding="utf-8"?>
<!-- Generator: Adobe Illustrator 22.1.0, SVG Export Plug-In . SVG Version: 6.00 Build 0)  -->
<svg version="1.1" id="logo_x5F_mychat" xmlns="http://www.w3.org/2000/svg" xmlns:xlink="http://www.w3.org/1999/xlink" x="0px"
	 y="0px" viewBox="0 0 124 124" style="enable-background:new 0 0 124 124;" xml:space="preserve">
<style type="text/css">
	.st0{fill:#FFBA00;}
	.st1{fill:#FFFFFF;}
	.st2{filter:url(#inset-shadow);}
</style>
<filter  height="200%" id="inset-shadow" width="200%" x="-20%" y="-20%">
	<feComponentTransfer  in="SourceAlpha">
		<feFuncA  tableValues="1 0" type="table"></feFuncA>
	</feComponentTransfer>
	<feGaussianBlur  stdDeviation="1"></feGaussianBlur>
	<feOffset  dx="1" dy="1" result="offsetblur"></feOffset>
	<feFlood  flood-color="rgba(0, 0, 0, 0.5)" result="color"></feFlood>
	<feComposite  in2="offsetblur" operator="in"></feComposite>
	<feComposite  in2="SourceAlpha" operator="in"></feComposite>
	<feMerge>
		<feMergeNode  in="SourceGraphic"></feMergeNode>
		<feMergeNode></feMergeNode>
	</feMerge>
</filter>
<g id="desenho">
	<g id="circulo">
		<path class="st0" d="M62,0C27.8,0,0,27.8,0,62s27.8,62,62,62s62-27.8,62-62S96.2,0,62,0z M79.3,91.9L79.3,91.9L60,111V97l0,0
			c-17.8-0.8-32-15.5-32-33.5C28,45,43,30,61.5,30S95,45,95,63.5C95,75.5,88.7,86,79.3,91.9z"/>
	</g>
	<g id="balao">
		<path class="st1" d="M61.5,30C43,30,28,45,28,63.5c0,18,14.2,32.7,32,33.5l0,0v14l19.3-19.1l0,0C88.7,86,95,75.5,95,63.5
			C95,45,80,30,61.5,30z"/>
	</g>
	<g id="bolas">
		<g class="st2">
			<circle class="st0" cx="76.5" cy="62.5" r="4.5"/>
		</g>
		<g class="st2">
			<circle class="st0" cx="60.5" cy="62.5" r="4.5"/>
		</g>
		<g class="st2">
			<circle class="st0" cx="44.5" cy="62.5" r="4.5"/>
		</g>
	</g>
</g>
</svg>
